# Blender 3.4.1
# www.blender.org
mtllib Pile_Of_Trash_3_SIZES.mtl
o Trash_Pile_03_GEO
v 4.212479 0.025592 0.597667
v 4.319832 0.262537 0.152360
v 4.001495 0.025592 -0.649979
v 4.319832 0.262537 -0.344362
v 5.086092 0.073711 0.206646
v 4.554537 0.262537 0.007084
v 5.086092 0.073711 -0.398648
v 4.554537 0.262537 -0.199086
v 3.830642 0.025592 -0.096001
v 4.199539 0.262537 -0.096001
v 5.229876 0.079246 -0.096001
v 4.602759 0.262537 -0.096001
v 4.080095 0.190286 -0.096001
v 4.215967 0.190286 -0.502606
v 4.826227 0.179744 -0.262307
v 4.901813 0.174208 -0.096001
v 4.826227 0.179744 0.070305
v 4.376066 0.190286 0.395290
v 4.443518 0.339084 -0.096001
v 4.717772 0.190286 -0.302774
v 5.121403 0.025592 -0.514543
v 5.317191 0.025592 -0.096001
v 4.814498 0.190286 -0.096001
v 4.717772 0.190286 0.110772
v 5.121403 0.025592 0.322541
v 5.034343 0.196793 -0.096001
v 3.883484 0.025592 0.250833
v 4.228081 0.190286 0.149645
v 5.219296 0.025592 0.113270
v 4.259686 0.262537 0.028180
v 5.157984 0.076479 0.055322
vn -0.9718 -0.2358 -0.0006
vn -0.5000 0.8659 0.0169
vn -0.1658 0.8863 -0.4324
vn -0.6609 -0.1154 -0.7415
vn 0.2045 0.8985 -0.3883
vn 0.5794 -0.2192 -0.7850
vn 0.1572 0.9681 0.1952
vn 0.3393 0.8969 0.2837
vn 0.2581 0.9661 -0.0000
vn 0.6337 -0.2106 0.7443
vn 0.2358 0.9232 0.3034
vn -0.0255 0.9086 0.4169
vn -0.3932 -0.1144 0.9123
vn -0.8658 -0.2119 0.4534
vn 0.8647 -0.2771 0.4189
vn 0.2894 0.9239 0.2503
vn 0.3644 0.9312 -0.0000
vn 0.0987 0.9951 -0.0000
vn -0.4277 0.9030 0.0395
vn -0.4258 0.8756 0.2279
vn -0.2437 0.9174 0.3147
vn 0.9785 -0.2064 0.0062
vn 0.1572 0.9681 -0.1952
vn -0.0536 0.9986 -0.0000
vn -0.4965 0.8202 0.2842
vn -0.0896 0.9434 -0.3192
vn 0.2923 0.9062 -0.3056
vn 0.2109 0.9775 -0.0000
vn 0.3446 0.8940 -0.2862
vn 0.5071 0.8619 0.0020
vn 0.4911 0.8365 0.2431
vt 0.002337 0.620062
vt 0.381732 0.746072
vt 0.507176 0.738193
vt 0.700730 0.835745
vt 0.298469 0.532378
vt 0.615862 0.750249
vt 0.508499 0.538638
vt 0.544577 0.687423
vt 0.667325 0.561417
vt 0.593299 0.693762
vt 0.551818 0.881415
vt 0.159229 0.507213
vt 0.560008 0.771497
vt 0.593518 0.515297
vt 0.570487 0.679103
vt 0.556915 0.804926
vt 0.649219 0.777037
vt 0.620561 0.626706
vt 0.580863 0.602861
vt 0.536033 0.614968
vt 0.454987 0.720406
vt 0.565514 0.717801
vt 0.627466 0.655745
vt 0.298469 0.807710
vt 0.700730 0.553765
vt 0.597923 0.488400
vt 0.202791 0.867415
vt 0.577823 0.624770
vt 0.521410 0.641202
vt 0.095637 0.832239
vt 0.478108 0.522256
vt 0.585314 0.571017
vt 0.456697 0.856391
vt 0.076737 0.530180
vt 0.499997 0.765048
vt 0.537330 0.503332
vt 0.149214 0.849827
vt 0.533033 0.755972
vt 0.550908 0.525934
s 1
usemtl Pile_of_Trash
f 9/11/1 13/16/2 14/17/3 3/4/4
f 3/4/4 14/17/3 20/23/5 21/25/6
f 17/20/7 5/7/8 26/32/9
f 25/31/10 24/29/11 18/21/12 1/2/13
f 27/34/14 29/37/15 25/30/10 1/1/13
f 6/8/16 12/15/17 19/22/18
f 10/13/19 30/38/20 2/3/21 19/22/18
f 3/5/4 21/24/6 22/27/22 9/12/1
f 15/18/23 16/19/24 26/32/9
f 27/33/14 28/35/25 13/16/2 9/11/1
f 10/13/19 4/6/26 14/17/3 13/16/2
f 4/6/26 8/10/27 20/23/5 14/17/3
f 12/15/17 6/8/16 24/29/11 23/28/28
f 6/8/16 2/3/21 18/21/12 24/29/11
f 30/38/20 10/13/19 13/16/2 28/35/25
f 8/10/27 12/15/17 23/28/28 20/23/5
f 4/6/26 10/13/19 19/22/18
f 12/15/17 8/10/27 19/22/18
f 2/3/21 6/8/16 19/22/18
f 8/10/27 4/6/26 19/22/18
f 15/18/23 7/9/29 21/25/6 20/23/5
f 7/9/29 11/14/30 22/26/22 21/25/6
f 17/20/7 16/19/24 23/28/28 24/29/11
f 5/7/8 17/20/7 24/29/11 25/31/10
f 31/39/31 5/7/8 25/31/10 29/36/15
f 16/19/24 15/18/23 20/23/5 23/28/28
f 11/14/30 7/9/29 26/32/9
f 5/7/8 31/39/31 11/14/30 26/32/9
f 16/19/24 17/20/7 26/32/9
f 7/9/29 15/18/23 26/32/9
f 11/14/30 31/39/31 29/36/15 22/26/22
f 2/3/21 30/38/20 28/35/25 18/21/12
f 1/2/13 18/21/12 28/35/25 27/33/14
f 9/12/1 22/27/22 29/37/15 27/34/14
o Trash_Pile_02_GEO
v 1.637727 -0.004389 0.104503
v 1.760711 0.036698 -0.018481
v 1.646561 -0.004389 -0.521489
v 1.769546 0.036698 -0.398505
v 2.649482 -0.004389 0.048984
v 2.526497 0.036698 -0.031254
v 2.555356 -0.004389 -0.649852
v 2.432372 0.036698 -0.526867
v 1.950136 0.057924 -0.051834
v 1.894185 0.057924 -0.376931
v 2.402714 0.053371 -0.157165
v 2.402714 0.053371 -0.392700
v 2.077618 0.130468 -0.214651
v 2.077618 0.130468 -0.278898
v 2.196959 0.114184 -0.216245
v 2.196959 0.114184 -0.277305
v 2.203971 -0.004389 -0.922003
v 2.203972 0.036698 -0.735604
v 2.203971 -0.004389 0.245878
v 2.203972 0.036698 0.059480
v 2.203972 0.057924 -0.631496
v 2.203972 0.057924 -0.044629
v 2.109742 0.130468 -0.295462
v 2.109742 0.130468 -0.198087
v 2.363682 0.057924 -0.458178
v 2.457807 0.057924 -0.076068
v 2.141865 0.130468 -0.278898
v 2.141865 0.130468 -0.214651
v 1.729102 -0.004389 -0.246775
v 1.892584 0.036698 -0.246775
v 2.798679 -0.004389 -0.301052
v 2.635197 0.080962 -0.301052
v 1.983892 0.057924 -0.246775
v 2.543888 0.081351 -0.301052
v 2.038507 0.130468 -0.246775
v 2.123910 0.130468 -0.246775
v 2.081209 0.130468 -0.246775
v 2.206467 -0.004389 -0.246775
v 2.470653 0.097635 -0.281468
v 2.197146 0.114184 -0.246775
v 2.728465 -0.003352 0.393186
v 2.822702 0.034837 0.298948
v 2.728465 -0.003352 0.044740
v 2.835646 0.057907 0.155186
v 3.076911 -0.003352 0.393186
v 2.982673 0.034837 0.298948
v 3.076911 -0.003352 0.044740
v 2.969730 0.057907 0.155186
v 2.902688 -0.003352 -0.015442
v 2.902688 0.057858 0.132037
v 2.902688 -0.003352 0.453369
v 2.902688 0.034837 0.326578
v 2.620319 -0.003352 0.218963
v 2.808688 0.055450 0.199451
v 3.185056 -0.003352 0.218963
v 2.996688 0.055450 0.199451
v 2.902687 0.072470 0.256441
v 2.902687 -0.003352 0.218963
v 2.773053 0.034837 0.218963
v 2.822702 0.034837 0.138978
v 2.902688 0.034837 0.111348
v 2.982673 0.034837 0.138978
v 3.032323 0.034837 0.218963
v 2.902687 0.056139 0.292988
v 2.902687 0.076509 0.165225
vn -0.9755 -0.2118 0.0599
vn -0.2303 0.9724 0.0377
vn -0.2473 0.9688 0.0149
vn -0.8941 -0.0707 -0.4422
vn 0.0178 -0.0673 -0.9976
vn 0.0078 0.9811 -0.1931
vn 0.1664 0.9615 -0.2187
vn 0.6652 -0.1666 -0.7278
vn 0.9937 -0.0922 -0.0633
vn 0.2357 0.9712 -0.0359
vn 0.1600 0.9614 0.2237
vn 0.7167 -0.1564 0.6797
vn 0.0678 -0.1088 0.9918
vn 0.0176 0.9683 0.2492
vn -0.1918 0.9808 0.0339
vn -0.8043 -0.0226 0.5938
vn -0.0000 -1.0000 -0.0000
vn 0.1450 0.9769 -0.1570
vn 0.0282 0.9992 -0.0282
vn -0.4366 0.8966 0.0739
vn -0.1270 0.9776 0.1678
vn -0.1758 0.9763 0.1262
vn -0.4606 0.8845 0.0744
vn 0.0820 0.9793 0.1853
vn 0.0203 0.9479 0.3180
vn -0.2239 0.9736 -0.0448
vn 0.0178 0.9820 -0.1882
vn -0.0000 1.0000 -0.0000
vn 0.0014 0.9650 0.2623
vn 0.1284 0.9869 0.0976
vn -0.1884 0.9802 -0.0606
vn -0.0317 0.9882 -0.1501
vn 0.0075 0.9999 0.0101
vn 0.0421 0.9821 -0.1835
vn 0.1902 0.9750 -0.1151
vn 0.1758 0.9843 0.0150
vn 0.1631 0.9859 -0.0385
vn 0.0839 0.9965 -0.0000
vn 0.1701 0.9833 0.0654
vn 0.2557 0.9663 -0.0280
vn -0.9955 -0.0948 -0.0000
vn -0.3106 0.9498 0.0386
vn -0.2947 0.8782 -0.3766
vn -0.6333 -0.1172 -0.7650
vn -0.0000 -0.1228 -0.9924
vn -0.0000 0.8699 -0.4932
vn 0.2947 0.8782 -0.3766
vn 0.6333 -0.1172 -0.7650
vn 0.9955 -0.0948 -0.0000
vn 0.3106 0.9498 0.0386
vn 0.1909 0.9509 0.2436
vn 0.6333 -0.1172 0.7650
vn -0.0000 -0.1228 0.9924
vn -0.0000 0.9582 0.2860
vn -0.1909 0.9509 0.2436
vn -0.6333 -0.1172 0.7650
vn -0.0000 0.9488 0.3159
vn -0.4683 0.8826 -0.0412
vn -0.0000 0.9658 0.2594
vn -0.0000 0.9754 -0.2203
vn -0.3760 0.8244 -0.4231
vn -0.0000 0.7638 -0.6455
vn 0.3760 0.8244 -0.4231
vn 0.4683 0.8826 -0.0412
vt 0.871029 0.002337
vt 0.848226 0.794772
vt 0.854678 0.749694
vt 0.976796 0.699076
vt 0.997663 0.096065
vt 0.931853 0.691103
vt 0.733806 0.217258
vt 0.705405 0.576626
vt 0.742826 0.590950
vt 0.890446 0.300640
vt 0.866673 0.488400
vt 0.859748 0.534454
vt 0.833832 0.705785
vt 0.908321 0.669027
vt 0.787391 0.596534
vt 0.836936 0.561729
vt 0.847676 0.654620
vt 0.860908 0.645419
vt 0.830479 0.629990
vt 0.843122 0.620951
vt 0.976796 0.522840
vt 0.997663 0.268793
vt 0.936676 0.551444
vt 0.758988 0.097298
vt 0.732027 0.700560
vt 0.771967 0.671476
vt 0.914681 0.567200
vt 0.793612 0.655861
vt 0.859752 0.636517
vt 0.839952 0.650301
vt 0.855704 0.558897
vt 0.762932 0.598265
vt 0.851632 0.632373
vt 0.838620 0.641662
vt 0.929400 0.072594
vt 0.908142 0.724787
vt 0.882794 0.690208
vt 0.783433 0.299149
vt 0.756842 0.491294
vt 0.783844 0.529765
vt 0.869173 0.671678
vt 0.797160 0.547736
vt 0.858254 0.655795
vt 0.847635 0.640547
vt 0.853588 0.649046
vt 0.859303 0.170151
vt 0.804758 0.566070
vt 0.836703 0.625336
vt 0.826150 0.873947
vt 0.813045 0.307357
vt 0.803800 0.341322
vt 0.733806 0.352049
vt 0.751649 0.920192
vt 0.775853 0.362817
vt 0.779905 0.799447
vt 0.857994 0.384138
vt 0.823851 0.375574
vt 0.705405 0.845691
vt 0.780235 0.431357
vt 0.791428 0.389422
vt 0.742802 0.400027
vt 0.715659 0.890929
vt 0.779038 0.378813
vt 0.815895 0.828710
vt 0.848575 0.338104
vt 0.819862 0.354914
vt 0.803253 0.920192
vt 0.760041 0.305315
vt 0.781267 0.351913
vt 0.728302 0.799447
vt 0.833830 0.431357
vt 0.803586 0.390038
vt 0.803112 0.364720
vt 0.765777 0.859819
vt 0.779983 0.340475
vt 0.768217 0.361425
vt 0.772106 0.382872
vt 0.788904 0.396761
vt 0.812932 0.396756
vt 0.811644 0.359725
vt 0.786428 0.374487
s 1
usemtl Pile_of_Trash
f 60/75/32 61/76/33 35/45/34 34/43/35
f 48/60/36 49/62/37 39/51/38 38/50/39
f 62/78/40 63/79/41 37/48/42 36/47/43
f 50/64/44 51/65/45 33/42/46 32/41/47
f 69/85/48 62/77/40 36/46/43 50/63/44
f 63/79/41 39/51/38 56/70/49 65/81/50
f 64/80/51 40/52/52 44/56/53 66/82/54
f 61/76/33 33/42/46 40/52/52 64/80/51
f 51/65/45 37/48/42 57/71/55 53/67/56
f 49/62/37 35/45/34 41/53/57 52/66/58
f 68/84/59 66/82/54 44/56/53 55/69/60
f 53/67/56 57/71/55 59/73/61 55/69/60
f 52/66/58 41/53/57 45/57/62 54/68/63
f 70/86/64 43/55/65 47/59/66 71/87/67
f 56/70/49 52/66/58 54/68/63 58/72/68
f 40/52/52 53/67/56 55/69/60 44/56/53
f 67/83/69 68/84/59 55/69/60 59/73/61
f 39/51/38 49/62/37 52/66/58 56/70/49
f 33/42/46 51/65/45 53/67/56 40/52/52
f 60/74/32 69/85/48 50/63/44 32/40/47
f 36/47/43 37/48/42 51/65/45 50/64/44
f 34/43/35 35/45/34 49/62/37 48/60/36
f 70/86/64 42/54/70 57/71/55 65/81/50
f 71/87/67 47/59/66 58/72/68 67/83/69
f 42/54/70 46/58/71 59/73/61 57/71/55
f 47/59/66 43/55/65 56/70/49 58/72/68
f 46/58/71 71/87/67 67/83/69 59/73/61
f 43/55/65 70/86/64 65/81/50 56/70/49
f 34/44/35 48/61/36 69/85/48 60/74/32
f 58/72/68 54/68/63 68/84/59 67/83/69
f 42/54/70 70/86/64 71/87/67 46/58/71
f 54/68/63 45/57/62 66/82/54 68/84/59
f 35/45/34 61/76/33 64/80/51 41/53/57
f 41/53/57 64/80/51 66/82/54 45/57/62
f 37/48/42 63/79/41 65/81/50 57/71/55
f 48/61/36 38/49/39 62/77/40 69/85/48
f 38/50/39 39/51/38 63/79/41 62/78/40
f 32/41/47 33/42/46 61/76/33 60/75/32
f 84/107/72 90/114/73 91/115/74 74/91/75
f 80/100/76 92/116/77 93/117/78 78/98/79
f 86/110/80 94/118/81 77/96/82 76/95/83
f 82/104/84 83/105/85 73/90/86 72/89/87
f 89/113/48 86/109/80 76/94/83 82/103/84
f 95/119/88 90/114/73 73/90/86 83/105/85
f 94/118/81 95/119/88 83/105/85 77/96/82
f 84/106/72 89/113/48 82/103/84 72/88/87
f 76/95/83 77/96/82 83/105/85 82/104/84
f 74/91/75 91/115/74 92/116/77 80/100/76
f 74/92/75 80/101/76 89/113/48 84/106/72
f 85/108/89 88/112/90 96/120/91
f 75/93/92 85/108/89 96/120/91
f 80/101/76 78/97/79 86/109/80 89/113/48
f 78/98/79 93/117/78 94/118/81 86/110/80
f 72/89/87 73/90/86 90/114/73 84/107/72
f 85/108/89 75/93/92 91/115/74 90/114/73
f 81/102/93 79/99/94 93/117/78 92/116/77
f 75/93/92 81/102/93 92/116/77 91/115/74
f 79/99/94 87/111/95 94/118/81 93/117/78
f 87/111/95 88/112/90 95/119/88 94/118/81
f 88/112/90 85/108/89 90/114/73 95/119/88
f 87/111/95 79/99/94 96/120/91
f 79/99/94 81/102/93 96/120/91
f 88/112/90 87/111/95 96/120/91
f 81/102/93 75/93/92 96/120/91
o Trahs_Pile_01_GEO
v -0.624862 -0.000000 0.507095
v -0.543604 0.057851 0.437152
v -0.624862 -0.000000 -0.564105
v -0.543604 0.057851 -0.488612
v 0.614138 -0.000000 0.507095
v 0.550221 0.058387 0.343243
v 0.614138 -0.000000 -0.731906
v 0.542767 0.057851 -0.649219
v -0.478634 0.079999 0.297531
v -0.478634 0.079999 -0.351059
v 0.391488 0.176452 0.290885
v 0.314377 0.079999 -0.495480
v -0.421239 0.187150 0.112176
v -0.421239 0.187150 -0.188339
v -0.035963 0.187150 0.112176
v -0.035963 0.241918 -0.273099
v -0.962536 -0.000000 -0.112406
v -0.837713 0.057851 -0.106033
v 1.000808 -0.000000 -0.112406
v 0.755493 0.058387 -0.034225
v -0.731523 0.079999 -0.098975
v 0.613597 0.176452 -0.034225
v -0.546233 0.187150 -0.080461
v 0.064282 0.214791 -0.080461
v 0.883771 0.057851 -0.106033
v 0.542767 0.057851 0.437152
v 0.349393 0.256928 -0.098975
v 0.138673 0.256928 0.297531
v 0.568232 0.134480 0.199597
v 0.495970 0.189990 0.188551
v 0.670316 0.134480 0.078972
v 0.595540 0.189990 0.078972
v -0.882774 -0.000000 0.241305
v 0.724221 0.058387 0.176893
v 0.269496 0.256928 0.080743
v 0.024331 0.215323 -0.011547
v -0.769989 0.057851 0.187115
v 0.865950 -0.000000 0.241305
v -0.674055 0.079999 0.080743
v -0.519446 0.187150 -0.011547
v 0.702211 0.058387 0.155727
v 0.458654 0.176452 0.103265
v 0.622598 0.148786 0.145815
v 0.548806 0.204296 0.135737
v -0.236434 0.264040 -0.053384
v -0.005362 -0.000000 -0.785167
v -0.000419 0.057851 -0.688153
v -0.005362 -0.000000 0.631702
v -0.000419 0.057851 0.545909
v -0.082129 0.079999 -0.509502
v -0.082129 0.079999 0.374647
v -0.228601 0.187150 -0.273315
v -0.228601 0.187150 0.147288
v 0.019136 -0.000000 -0.128190
v -0.008412 -0.000000 0.305679
vn -0.9694 -0.1713 -0.1756
vn -0.3219 0.9433 -0.0812
vn -0.1998 0.9348 -0.2935
vn -0.5985 -0.2146 -0.7718
vn -0.1169 -0.2396 -0.9638
vn -0.0462 0.9353 -0.3508
vn 0.1973 0.9166 -0.3478
vn 0.5416 -0.1906 -0.8188
vn 0.8359 -0.1928 0.5139
vn 0.1844 0.9756 0.1191
vn 0.2096 0.8926 0.3992
vn 0.5141 -0.2016 0.8337
vn -0.0050 -0.2642 0.9645
vn -0.0120 0.8536 0.5208
vn -0.1529 0.9324 0.3274
vn -0.5113 -0.2113 0.8330
vn -0.0000 -1.0000 -0.0000
vn -0.2805 0.9471 0.1562
vn -0.1373 0.9589 0.2483
vn -0.2924 0.9433 0.1571
vn -0.0646 0.9447 -0.3216
vn -0.1907 0.9387 -0.2872
vn -0.2597 0.8882 -0.3790
vn -0.1821 0.8789 -0.4409
vn -0.0383 0.9453 0.3239
vn -0.1085 0.9262 0.3612
vn 0.3418 0.9377 -0.0628
vn 0.0814 0.9663 -0.2443
vn 0.1532 0.9850 -0.0795
vn -0.0906 0.9143 0.3949
vn -0.1385 0.9675 0.2115
vn -0.0676 0.9968 0.0417
vn -0.0071 0.9434 -0.3315
vn 0.0330 0.9958 -0.0853
vn -0.2294 0.9086 0.3491
vn -0.3601 0.9110 0.2013
vn -0.2746 0.9594 -0.0645
vn -0.3969 0.9102 -0.1184
vn 0.0787 0.9945 0.0687
vn -0.0142 0.9982 0.0589
vn 0.3370 0.9391 0.0676
vn 0.4110 0.9102 0.0521
vn 0.3156 0.9489 -0.0027
vn 0.6913 0.7055 0.1561
vn 0.9831 -0.1578 -0.0929
vn -0.8670 -0.1924 0.4597
vn 0.3367 0.9234 0.1843
vn 0.2708 0.9286 0.2535
vn 0.1002 0.9929 0.0644
vn 0.3433 0.8964 0.2802
vn 0.5796 0.7065 0.4061
vn 0.1767 0.9652 0.1930
vn 0.1246 0.9521 0.2793
vn 0.4758 0.6985 0.5346
vt 0.310128 0.054399
vt 0.668027 0.431484
vt 0.293255 0.082167
vt 0.405382 0.378655
vt 0.027410 0.112096
vt 0.054466 0.130961
vt 0.729132 0.127696
vt 0.377058 0.373650
vt 0.327783 0.365795
vt 0.425343 0.066592
vt 0.053024 0.435182
vt 0.073074 0.409725
vt 0.261344 0.106595
vt 0.092257 0.140848
vt 0.298648 0.324383
vt 0.097294 0.344236
vt 0.214230 0.135953
vt 0.141994 0.151182
vt 0.236227 0.226988
vt 0.144136 0.246597
vt 0.127898 0.002701
vt 0.499480 0.483726
vt 0.137795 0.037834
vt 0.596307 0.002337
vt 0.234056 0.502538
vt 0.246291 0.433729
vt 0.145434 0.065210
vt 0.232085 0.391579
vt 0.162084 0.117060
vt 0.194464 0.260477
vt 0.230106 0.468200
vt 0.350938 0.357715
vt 0.202079 0.329218
vt 0.284182 0.265276
vt 0.289286 0.372945
vt 0.278423 0.353848
vt 0.263760 0.401220
vt 0.257947 0.380174
vt 0.225142 0.002337
vt 0.590139 0.481613
vt 0.296542 0.418111
vt 0.240802 0.302469
vt 0.208764 0.247789
vt 0.216885 0.038311
vt 0.676382 0.052847
vt 0.321360 0.453397
vt 0.195230 0.069455
vt 0.179784 0.119728
vt 0.290074 0.413462
vt 0.256610 0.348441
vt 0.276212 0.386159
vt 0.268405 0.367417
vt 0.184187 0.189136
vt 0.381732 0.215859
vt 0.002337 0.281749
vt 0.031749 0.277387
vt 0.729132 0.285736
vt 0.377058 0.206672
vt 0.350555 0.213614
vt 0.072765 0.247525
vt 0.302009 0.199851
vt 0.130111 0.200630
vt 0.233728 0.179127
vt 0.544024 0.242253
vt 0.649044 0.270405
s 1
usemtl Pile_of_Trash
f 113/141/96 114/143/97 100/126/98 99/125/99
f 142/175/100 143/176/101 104/132/102 103/131/103
f 134/166/104 130/161/105 122/152/106 101/128/107
f 144/178/108 145/179/109 98/123/110 97/121/111
f 151/185/112 134/165/104 101/127/107 144/177/108
f 133/164/113 98/123/110 105/133/114 135/167/115
f 146/180/116 106/134/117 110/138/118 148/182/119
f 145/179/109 122/152/106 124/154/120 147/181/121
f 143/176/101 100/126/98 106/134/117 146/180/116
f 121/151/122 104/132/102 108/136/123 123/153/124
f 149/183/125 111/139/126 141/173/127
f 123/153/124 108/136/123 112/140/128 120/150/129
f 135/167/115 105/133/114 109/137/130 136/168/131
f 147/181/121 124/154/120 111/139/126 149/183/125
f 106/134/117 117/147/132 119/149/133 110/138/118
f 131/162/134 123/153/124 120/150/129 132/163/135
f 119/149/133 136/168/131 141/173/127
f 116/146/136 118/148/137 128/158/138 127/157/139
f 100/126/98 114/143/97 117/147/132 106/134/117
f 142/174/100 103/130/103 115/144/140 150/184/112
f 103/131/103 104/132/102 121/151/122 115/145/140
f 129/159/141 133/164/113 114/143/97 113/141/96
f 137/169/142 102/129/143 122/152/106 130/161/105
f 138/170/144 118/148/137 123/153/124 131/162/134
f 102/129/143 107/135/145 124/154/120 122/152/106
f 118/148/137 116/146/136 121/151/122 123/153/124
f 139/171/146 127/157/139 128/158/138 140/172/147
f 138/170/144 107/135/145 126/156/148 140/172/147
f 107/135/145 102/129/143 125/155/149 126/156/148
f 137/169/142 116/146/136 127/157/139 139/171/146
f 102/129/143 137/169/142 139/171/146 125/155/149
f 118/148/137 138/170/144 140/172/147 128/158/138
f 125/155/149 139/171/146 140/172/147 126/156/148
f 107/135/145 138/170/144 131/162/134 124/154/120
f 116/146/136 137/169/142 130/161/105 121/151/122
f 97/121/111 98/123/110 133/164/113 129/159/141
f 124/154/120 131/162/134 132/163/135 111/139/126
f 117/147/132 135/167/115 136/168/131 119/149/133
f 136/168/131 109/137/130 141/173/127
f 114/143/97 133/164/113 135/167/115 117/147/132
f 150/184/112 115/144/140 134/165/104 151/185/112
f 115/145/140 121/151/122 130/161/105 134/166/104
f 148/182/119 110/138/118 141/173/127
f 132/163/135 120/150/129 141/173/127
f 120/150/129 112/140/128 141/173/127
f 111/139/126 132/163/135 141/173/127
f 110/138/118 119/149/133 141/173/127
f 112/140/128 148/182/119 141/173/127
f 113/142/96 150/184/112 151/185/112 129/160/141
f 99/124/99 142/174/100 150/184/112 113/142/96
f 105/133/114 147/181/121 149/183/125 109/137/130
f 109/137/130 149/183/125 141/173/127
f 104/132/102 143/176/101 146/180/116 108/136/123
f 98/123/110 145/179/109 147/181/121 105/133/114
f 108/136/123 146/180/116 148/182/119 112/140/128
f 129/160/141 151/185/112 144/177/108 97/122/111
f 101/128/107 122/152/106 145/179/109 144/178/108
f 99/125/99 100/126/98 143/176/101 142/175/100
